<?xml version="1.0" encoding="UTF-8"?>
<svg id="Camada_2" data-name="Camada 2" xmlns="http://www.w3.org/2000/svg" viewBox="0 0 395.18 157.39">
  <defs>
    <style>
      .cls-1 {
        fill: #fefefe;
      }

      .cls-1, .cls-2, .cls-3 {
        stroke-width: 0px;
      }

      .cls-2 {
        fill: #dccbfa;
      }

      .cls-3 {
        fill: #7b53d8;
      }
    </style>
  </defs>
  <g id="Camada_1-2" data-name="Camada 1">
    <g>
      <path class="cls-1" d="m127.55,127.01c0,9.59.02,19.19-.03,28.78,0,1.13.33,1.39,1.41,1.38,8.39-.04,16.78-.05,25.17,0,1.22,0,1.52-.3,1.52-1.52-.04-18.15-.03-36.3-.02-54.45,0-1.35.02-2.69.19-4.05.69-5.4,2.9-10.1,6.44-14.14,4.86-5.53,10.84-8.96,18.34-9.66,5.31-.5,10.31.29,15.08,2.59,3.98,1.92,7.2,4.79,9.94,8.23.67.84.91.84,1.24-.11.53-1.5,1.13-2.97,1.69-4.46,1.28-3.4,2.7-6.72,4.53-9.86,1.95-3.34,4.05-6.58,6.49-9.58.45-.55.84-1.08.06-1.72-3.37-2.82-6.96-5.32-10.86-7.36-7.74-4.03-16.07-5.73-24.72-5.95-2.3-.06-4.6.22-6.9.42-3.82.33-7.55,1.13-11.18,2.31-7.03,2.28-13.26,5.95-18.82,10.83-5.48,4.81-10.11,10.29-13.5,16.76-4.08,7.79-6.03,16.15-6.07,24.93-.04,8.87,0,17.75,0,26.62Z"/>
      <path class="cls-3" d="m334.46,157.39c-1.91-.3-3.83-.56-5.74-.89-11.57-1.97-21.29-7.44-29.51-15.72-7.71-7.76-13.08-16.84-15.09-27.65-3.91-21.01,1.59-39.06,17.43-53.67,8.98-8.28,19.58-12.94,31.77-14.17,29.81-3,50.7,16.37,58.27,35.71,2.46,6.28,3.58,12.82,3.58,19.56,0,18.67,0,37.34,0,56.01,0,.28-.04.56-.06.83h-28.05c.01-.2.03-.4.03-.6,0-18.59,0-37.17,0-55.76,0-1.52-.08-3.04-.34-4.54-2.58-15.21-17.32-25.65-32.48-23.02-16.77,2.91-27.15,20.08-21.99,36.38,3.49,11.04,13.96,18.98,25.64,19.4.74.03,1.13.1,1.13,1.02-.04,9.03-.04,18.07-.05,27.1h-4.56Z"/>
      <path class="cls-2" d="m0,97.17c.49-1.04.3-2.18.43-3.26.63-5.38,2.07-10.52,4.24-15.48,3.22-7.37,8.07-13.55,13.95-18.92,7.74-7.06,16.74-11.68,27.13-13.45,3.66-.62,7.34-.91,11.04-.92,17.82-.04,35.64-.02,53.46-.02q1.72,0,1.72,1.7c0,8.32-.02,16.63.03,24.95,0,1.18-.35,1.44-1.48,1.44-18.14-.03-36.28-.02-54.41-.03-4.24,0-8.32.8-12.14,2.64-4.32,2.07-7.81,5.18-10.69,9-2.96,3.92-4.7,8.36-5.14,13.2-.64,7.17.77,13.89,5.26,19.73,4.44,5.78,10.08,9.65,17.35,10.94,1.13.2,2.26.41,3.43.4,18.7,0,37.39,0,56.09,0q1.71,0,1.71,1.72c0,8.36-.01,16.71.02,25.07,0,.96-.21,1.3-1.25,1.3-19.14-.03-38.28.12-57.41-.09-8.84-.1-17.18-2.56-24.9-7.02-5.01-2.9-9.49-6.46-13.42-10.68-7.31-7.85-12.22-16.95-14.07-27.61-.35-2-.72-3.99-.71-6.03,0-.24-.02-.48-.23-.65v-7.92Z"/>
      <path class="cls-3" d="m210.99,157.39c0-18.71.14-37.42-.03-56.13-.27-27.95,19.72-47.12,37.46-53.2,5.75-1.97,11.66-2.97,17.74-3.02.83,0,.98.3.98,1.04-.02,8.68-.02,17.35,0,26.03,0,.84-.25,1.06-1.08,1.08-13.35.39-24.9,10.71-26.71,23.9-.24,1.77-.28,3.59-.28,5.38-.02,18.31-.02,36.62-.03,54.93h-28.05Z"/>
      <path class="cls-1" d="m339.02,157.39c0-9.03,0-18.07.05-27.1,0-.92-.38-.99-1.13-1.02-11.68-.43-22.15-8.36-25.64-19.4-5.16-16.3,5.22-33.47,21.99-36.38,15.16-2.63,29.9,7.81,32.48,23.02.25,1.5.34,3.01.34,4.54,0,18.59,0,37.17,0,55.76,0,.2-.02.4-.03.6h-28.05Z"/>
      <path class="cls-3" d="m255.82,0c.02,5.48.04,10.95.04,16.43,0,5.4-.01,10.8.02,16.19,0,.87-.13,1.24-1.15,1.24-10.47-.04-20.94-.03-31.4-.02-.6,0-1.15.12-1.15-.86.03-10.87.03-21.75.04-32.62,0-.12.03-.24.04-.36,11.19,0,22.38,0,33.57,0Z"/>
      <path class="cls-2" d="m127.55,127.01c0-8.87-.03-17.75,0-26.62.04-8.79,1.99-17.14,6.07-24.93,3.39-6.46,8.02-11.94,13.5-16.76,5.56-4.88,11.8-8.55,18.82-10.83,3.63-1.18,7.36-1.98,11.18-2.31,2.3-.2,4.6-.47,6.9-.42,8.66.22,16.98,1.91,24.72,5.95,3.9,2.03,7.49,4.53,10.86,7.36.77.65.39,1.17-.06,1.72-2.45,3-4.55,6.24-6.49,9.58-1.83,3.14-3.24,6.47-4.53,9.86-.56,1.49-1.16,2.96-1.69,4.46-.33.95-.58.95-1.24.11-2.74-3.43-5.96-6.31-9.94-8.23-4.77-2.3-9.77-3.09-15.08-2.59-7.49.7-13.48,4.13-18.34,9.66-3.55,4.03-5.76,8.74-6.44,14.14-.17,1.36-.19,2.7-.19,4.05-.01,18.15-.02,36.3.02,54.45,0,1.22-.3,1.53-1.52,1.52-8.39-.06-16.78-.05-25.17,0-1.08,0-1.42-.25-1.41-1.38.05-9.59.03-19.19.03-28.78Z"/>
    </g>
  </g>
</svg>